
            <svg data-logo="logo" xmlns="http://www.w3.org/2000/svg" viewBox="0 0 144 41">
                <g id="logogram" transform="translate(0, 0.5)"><path d="M29.2205 33.1053L2.45499 14.6424C-0.257366 12.7715 0.664657 8.87601 4.0469 7.95996L32.4939 0.239132C33.0965 0.0216955 33.7422 -0.0488885 34.3776 0.0332432C35.0129 0.115375 35.6195 0.34785 36.147 0.711378C36.6745 1.07491 37.1077 1.559 37.4106 2.12348C37.7134 2.68795 37.8774 3.31654 37.8887 3.95706L36.2028 30.1393C36.0029 33.247 31.9329 34.9762 29.2205 33.1053Z" fill="#E9327C"/><path d="M20.7314 37.6632L4.96295 6.82616C4.60249 6.12071 4.44389 5.3294 4.50459 4.53951C4.5653 3.74963 4.84298 2.99186 5.30699 2.34977C5.77102 1.70768 6.40335 1.20621 7.13427 0.900655C7.86519 0.595104 8.66629 0.497352 9.44923 0.618185L38.672 5.12833C39.3448 5.23218 39.9833 5.49424 40.5352 5.89296C41.0869 6.2917 41.5361 6.8157 41.846 7.4219C42.1557 8.02809 42.3173 8.69915 42.3172 9.37993C42.317 10.0607 42.1553 10.7317 41.8454 11.3378L28.3836 37.6647C28.0221 38.3681 27.4736 38.9583 26.7985 39.3702C26.1234 39.7823 25.3479 40.0001 24.557 40C23.7661 39.9999 22.9906 39.7817 22.3157 39.3695C21.6407 38.9571 21.0926 38.3668 20.7314 37.6632Z" fill="#1DACE3"/><path d="M37.8172 4.9955L23.2498 2.74714L5.36432 7.60342L12.5033 21.5695L29.2206 33.1053C29.5894 33.357 29.995 33.5497 30.4231 33.6767L36.7728 21.2592L37.8172 4.9955Z" fill="#001A49"/></g>
                <g id="logotype" transform="translate(49, 0)"><path fill="#cb1a1a" d="M9.84 35L6.79 35L14.98 12.45L18.31 12.45L26.60 35L23.57 35L18.79 21.62Q18.35 20.38 17.77 18.52Q17.19 16.67 16.35 13.79L16.35 13.79L16.90 13.79Q16.08 16.70 15.48 18.58Q14.89 20.47 14.49 21.62L14.49 21.62L9.84 35ZM22.48 28.70L10.90 28.70L10.90 26.19L22.48 26.19L22.48 28.70ZM28.10 12.45L30.97 12.45L30.97 35L28.10 35L28.10 12.45ZM33.86 24.12L43.76 24.12L43.76 26.63L33.86 26.63L33.86 24.12ZM52.51 14.99L45.41 14.99L45.41 12.45L62.45 12.45L62.45 14.99L55.39 14.99L55.39 35L52.51 35L52.51 14.99ZM67.04 35L64.31 35L64.31 18.08L66.95 18.08L66.95 20.68L67.13 20.68Q67.60 19.39 68.80 18.61Q70.01 17.83 71.52 17.83L71.52 17.83Q71.82 17.83 72.24 17.85Q72.65 17.87 72.90 17.88L72.90 17.88L72.90 20.62Q72.78 20.59 72.29 20.53Q71.81 20.47 71.26 20.47L71.26 20.47Q70.05 20.47 69.09 20.98Q68.13 21.48 67.58 22.37Q67.04 23.25 67.04 24.40L67.04 24.40L67.04 35ZM76.69 35L73.97 35L73.97 18.08L76.69 18.08L76.69 35ZM75.35 15.31L75.35 15.31Q74.58 15.31 74.02 14.78Q73.46 14.25 73.46 13.51L73.46 13.51Q73.46 12.75 74.02 12.23Q74.58 11.70 75.35 11.70L75.35 11.70Q76.13 11.70 76.69 12.23Q77.25 12.75 77.25 13.51L77.25 13.51Q77.25 14.25 76.69 14.78Q76.13 15.31 75.35 15.31ZM82.19 41.33L79.46 41.33L79.46 18.08L82.10 18.08L82.10 20.79L82.40 20.79Q82.69 20.33 83.20 19.64Q83.72 18.96 84.68 18.41Q85.65 17.87 87.30 17.87L87.30 17.87Q89.42 17.87 91.03 18.92Q92.65 19.98 93.56 21.94Q94.48 23.90 94.48 26.58L94.48 26.58Q94.48 29.28 93.57 31.25Q92.66 33.21 91.05 34.29Q89.44 35.36 87.32 35.36L87.32 35.36Q85.71 35.36 84.73 34.81Q83.75 34.26 83.22 33.55Q82.69 32.85 82.40 32.38L82.40 32.38L82.19 32.38L82.19 41.33ZM86.91 32.93L86.91 32.93Q88.50 32.93 89.57 32.07Q90.63 31.22 91.17 29.77Q91.71 28.32 91.71 26.55L91.71 26.55Q91.71 24.80 91.18 23.38Q90.65 21.97 89.58 21.13Q88.51 20.30 86.91 20.30L86.91 20.30Q85.35 20.30 84.29 21.09Q83.23 21.88 82.69 23.28Q82.16 24.68 82.16 26.55L82.16 26.55Q82.16 28.43 82.70 29.87Q83.25 31.31 84.31 32.12Q85.38 32.93 86.91 32.93Z"/></g>
                
            </svg>
        